<?xml version="1.0" encoding="UTF-8" standalone="no"?>
<!-- Created with Inkscape (http://www.inkscape.org/) -->

<svg
   width="91.56868mm"
   height="27.51786mm"
   viewBox="0 0 91.56868 27.51786"
   version="1.1"
   id="svg5"
   inkscape:version="1.1.1 (3bf5ae0d25, 2021-09-20)"
   sodipodi:docname="buy-me-a-coffee.svg"
   inkscape:export-filename="C:\Users\raduned\Desktop\buy-me-a-coffee.png"
   inkscape:export-xdpi="27.74"
   inkscape:export-ydpi="27.74"
   xmlns:inkscape="http://www.inkscape.org/namespaces/inkscape"
   xmlns:sodipodi="http://sodipodi.sourceforge.net/DTD/sodipodi-0.dtd"
   xmlns="http://www.w3.org/2000/svg"
   xmlns:svg="http://www.w3.org/2000/svg">
  <sodipodi:namedview
     id="namedview7"
     pagecolor="#ffffff"
     bordercolor="#666666"
     borderopacity="1.0"
     inkscape:pageshadow="2"
     inkscape:pageopacity="0.0"
     inkscape:pagecheckerboard="0"
     inkscape:document-units="mm"
     showgrid="false"
     fit-margin-top="0"
     fit-margin-left="0"
     fit-margin-right="0"
     fit-margin-bottom="0"
     inkscape:zoom="1.2970819"
     inkscape:cx="201.99187"
     inkscape:cy="-58.593061"
     inkscape:window-width="1920"
     inkscape:window-height="1017"
     inkscape:window-x="-8"
     inkscape:window-y="-8"
     inkscape:window-maximized="1"
     inkscape:current-layer="layer1" />
  <defs
     id="defs2" />
  <g
     inkscape:label="Layer 1"
     inkscape:groupmode="layer"
     id="layer1"
     transform="translate(-22.180586,-278.67065)">
    <rect
       style="fill:#ff7d19;fill-opacity:1;stroke:#35343a;stroke-width:1;stroke-miterlimit:4;stroke-dasharray:none;stroke-opacity:1;paint-order:stroke markers fill"
       id="rect7194"
       width="90.56868"
       height="26.51786"
       x="22.680586"
       y="279.17065"
       rx="5"
       ry="5" />
    <text
       xml:space="preserve"
       style="font-style:normal;font-weight:normal;font-size:12.7px;line-height:1.25;font-family:sans-serif;fill:#35343a;fill-opacity:1;stroke:none;stroke-width:0.264583;stroke-opacity:1"
       x="30.597528"
       y="296.92157"
       id="text2036"><tspan
         sodipodi:role="line"
         id="tspan2034"
         style="font-style:normal;font-variant:normal;font-weight:normal;font-stretch:normal;font-size:12.7px;font-family:Bould;-inkscape-font-specification:Bould;fill:#35343a;fill-opacity:1;stroke:none;stroke-width:0.264583;stroke-opacity:1"
         x="30.597528"
         y="296.92157">Buy me a </tspan></text>
    <g
       id="g8"
       transform="matrix(0.01730526,0,0,0.01730526,86.480772,283.34532)"
       style="stroke:#35343a;stroke-width:42.12592009;stroke-miterlimit:4;stroke-dasharray:none;stroke-opacity:1">
      <path
         d="M 499.8,11.6"
         id="path4"
         style="stroke:#35343a;stroke-width:42.12592009;stroke-miterlimit:4;stroke-dasharray:none;stroke-opacity:1" />
      <path
         d="m 820.5,496.8 c 4,-48.4 3.7,-79.8 3.7,-79.8 H 595.4 C 664.6,277.2 593.5,234.8 553.9,200.8 408.5,103.2 499.8,11.6 499.8,11.6 337.2,38 345.8,201.6 418.7,254.9 550.3,334.7 526.9,417 526.9,417 H 392 c 0,-38.8 -27.8,-56.1 -45.6,-71 -94,-61 -62.2,-118.3 -62.2,-118.3 -105.1,16.5 -82.1,128.5 -25.1,152 19.1,7.5 33.3,21.7 43.7,37.2 H 13.3 c 0,0 -5.2,451.8 243.3,567.6 h 324.3 c 39.8,-18.6 73.2,-45.8 101,-78.4 C 958.6,938.9 985.3,746.6 986.3,741.3 1030.6,524 850.7,499.4 820.5,496.8 Z m 84.8,204 c -8.2,61.9 -42.6,121.7 -135.1,121.6 -10.7,0 -21.2,-1.1 -31.2,-3.3 42.8,-84.7 64.2,-182.4 74.8,-260.3 56.4,17.8 101,69.5 91.5,142 z"
         id="path6"
         style="fill:#eceed6;fill-opacity:1;stroke:#35343a;stroke-width:42.12592009;stroke-miterlimit:4;stroke-dasharray:none;stroke-opacity:1" />
    </g>
  </g>
</svg>
